<svg xmlns="http://www.w3.org/2000/svg" viewBox="0 0 157.67 74.09"><defs><style>.a{fill:#0071bc;}.b{fill:#2e3192;}</style></defs><title>logo</title><path class="a" d="M70.43,22.55a23.22,23.22,0,0,0,4.32-.28,7.67,7.67,0,0,0,2.75-1A3.68,3.68,0,0,0,79,19.61a6.24,6.24,0,0,0,.42-2.38V0h7.31V17.44a7.22,7.22,0,0,1-4.08,6.65q-4.08,2.28-12.17,2.21Z"/><path class="a" d="M111.07,22.44l-5.55-5.14-5.44,5.14h-8l8.82-7.64L92.29,7.3h8.21l5.32,5,5.19-5h7.91l-8.45,7.5,8.69,7.64Z"/><path class="a" d="M147.67,18.72v3.72H124.78V0h22.28V3.72H132.21V9.07h13.4v3.75h-13.4v5.9Z"/><path class="b" d="M61.18,8,33.3,73.59H27.87L0,8H14.09L31,51.85,48,8Z"/><path class="b" d="M108.26,71a12.15,12.15,0,0,1-3.52,2,14.21,14.21,0,0,1-5.15.86,11.07,11.07,0,0,1-5.43-1.21,6.31,6.31,0,0,1-3-3.92,13.15,13.15,0,0,1-5.19,4,19.42,19.42,0,0,1-7.9,1.41q-6.64,0-10.26-3.42a12,12,0,0,1-3.63-9.16A12.51,12.51,0,0,1,68.47,52Q72.74,48,81.6,48h8.25V45.41c0-2.81-.62-4.81-1.86-6a7,7,0,0,0-5-1.76A7.4,7.4,0,0,0,78.28,39a7.3,7.3,0,0,0-2.42,4L65.6,40a16.74,16.74,0,0,1,5.94-9Q76,27.5,84,27.5a24.12,24.12,0,0,1,7.17,1,14.27,14.27,0,0,1,5.55,3.17,14.65,14.65,0,0,1,3.64,5.63,24,24,0,0,1,1.31,8.41V62c0,1.27.61,1.91,1.81,1.91a2.21,2.21,0,0,0,1.61-.71ZM81.4,65.24a8.21,8.21,0,0,0,6.14-2.47c1.61-1.64,2.41-4,2.41-7.09h-8A6.69,6.69,0,0,0,77.57,57,4.44,4.44,0,0,0,76,60.61a4.16,4.16,0,0,0,1.45,3.47A6.26,6.26,0,0,0,81.4,65.24Z"/><path class="b" d="M140.36,27.5q8.65,0,13,5.39t4.33,14V73H145.59V48.33a11.51,11.51,0,0,0-2.31-7.54c-1.55-1.88-3.86-2.82-6.95-2.82a8.58,8.58,0,0,0-7,3,11.34,11.34,0,0,0-2.46,7.49V73H114.7V29.11H126V34a15.81,15.81,0,0,1,5.79-4.82A19.21,19.21,0,0,1,140.36,27.5Z"/></svg>